<?xml version="1.0" encoding="UTF-8"?><svg id="a" xmlns="http://www.w3.org/2000/svg" width="90" height="89.8" viewBox="0 0 90 89.8"><defs><style>.b{fill:#d8e5e2;}</style></defs><path class="b" d="M45,54.4c-19.7,0-36.1-14-38.8-32.1C14,8.9,28.5,0,45,0s31,8.9,38.8,22.2c-2.7,18.2-19.1,32.2-38.8,32.2ZM88.6,33.9c-2.4,4.5-6,10.6-9.9,13.6-6.6,5.1-19.6,13.5-19.6,13.5-6.4,5.1-10.5,12.9-10.5,21.8,0,2.4.3,4.7.9,7,22.8-2.3,40.5-21.5,40.5-44.8,0-3.8-.5-7.5-1.4-11.1ZM30.8,61.1s-12.9-8.4-19.6-13.5c-3.9-3-7.5-9.1-9.9-13.6-.8,3.5-1.3,7.2-1.3,11,0,23.3,17.7,42.4,40.4,44.8.6-2.2.9-4.5.9-6.9,0-6.5-2.3-12.6-6-17.3-1.4-1.7-2.9-3.2-4.5-4.5Z"/></svg>